<svg width="32" height="33" viewBox="0 0 32 33" fill="none" xmlns="http://www.w3.org/2000/svg">
<path fill-rule="evenodd" clip-rule="evenodd" d="M25.0678 4.96973C26.6861 4.96973 28 6.28363 28 7.90195V26.0375C28 27.6558 26.6861 28.9697 25.0678 28.9697H20.0771V19.9268H23.199L23.793 16.054H20.0771V13.5407C20.0771 12.4812 20.5961 11.4484 22.2605 11.4484H23.95V8.15118C23.95 8.15118 22.4167 7.88952 20.9508 7.88952C17.8905 7.88952 15.8902 9.74432 15.8902 13.1022V16.054H12.4884V19.9268H15.8902V28.9697H6.93222C5.31391 28.9697 4 27.6558 4 26.0375V7.90195C4 6.28363 5.31386 4.96973 6.93222 4.96973L25.0678 4.96973Z" fill="black"/>
</svg>
