<svg width="18" height="17" viewBox="0 0 18 17" fill="none" xmlns="http://www.w3.org/2000/svg">
<g id="Fill 263">
<path id="Fill 263_2" fill-rule="evenodd" clip-rule="evenodd" d="M11.781 9.07634C10.8843 9.07634 10.158 9.80973 10.158 10.7134V16.443H6.10065C6.10065 16.443 6.14853 6.62079 6.10065 5.80227H10.158V7.01777C10.158 7.01777 11.4142 5.83665 13.3544 5.83665C15.7572 5.83665 17.4613 7.59073 17.4613 10.9966V16.443H13.4039V10.7134C13.4039 9.80973 12.6776 9.07634 11.781 9.07634ZM2.44092 4.16516H2.41738C1.19125 4.16516 0.398438 3.19767 0.398438 2.13442C0.398438 1.04661 1.21559 0.160156 2.46526 0.160156C3.71574 0.160156 4.4842 1.07526 4.50855 2.16307C4.50855 3.22714 3.71574 4.16516 2.44092 4.16516ZM4.47777 16.443H0.420393V5.80227H4.47777V16.443Z" fill="currentColor"/>
</g>
</svg>