<svg width="32" height="33" viewBox="0 0 32 33" fill="none" xmlns="http://www.w3.org/2000/svg">
<path fill-rule="evenodd" clip-rule="evenodd" d="M28 7.96973C28 6.31396 26.6558 4.96973 25 4.96973H7C5.34423 4.96973 4 6.31396 4 7.96973V25.9697C4 27.6255 5.34423 28.9697 7 28.9697H25C26.6558 28.9697 28 27.6255 28 25.9697V7.96973Z" fill="black"/>
<path d="M10.8823 13.3428H6.8623V25.4347H10.8823V13.3428Z" fill="white"/>
<path d="M8.899 7.5127C7.52364 7.5127 6.625 8.41691 6.625 9.60205C6.625 10.7623 7.49631 11.6915 8.8458 11.6915H8.87177C10.2735 11.6915 11.146 10.7623 11.146 9.60205C11.1199 8.41691 10.2736 7.5127 8.899 7.5127Z" fill="white"/>
<path d="M20.7468 13.0615C18.6144 13.0615 17.6593 14.2342 17.1244 15.0579V13.3459H13.1055C13.1588 14.4801 13.1055 25.4378 13.1055 25.4378H17.1244V18.6848C17.1244 18.3233 17.1504 17.962 17.2569 17.7036C17.547 16.9818 18.2087 16.234 19.3191 16.234C20.7728 16.234 21.3551 17.3433 21.3551 18.9681V25.4378H25.3742V18.5036C25.3742 14.7893 23.3912 13.0615 20.7468 13.0615Z" fill="white"/>
</svg>
