<svg width="32" height="33" viewBox="0 0 32 33" fill="none" xmlns="http://www.w3.org/2000/svg">
<path d="M25 28.9697H7C5.344 28.9697 4 27.6257 4 25.9697V7.96973C4 6.31373 5.344 4.96973 7 4.96973H25C26.656 4.96973 28 6.31373 28 7.96973V25.9697C28 27.6257 26.656 28.9697 25 28.9697Z" fill="black"/>
<path fill-rule="evenodd" clip-rule="evenodd" d="M13.0016 9.56348H7.89062L13.9504 17.5677L8.27828 24.2822H10.899L15.189 19.2038L18.9984 24.2355H24.1094L17.8735 15.9987L17.8846 16.0129L23.2537 9.65695H20.633L16.6458 14.377L13.0016 9.56348ZM10.7118 10.9653H12.3029L21.2882 22.8337H19.6971L10.7118 10.9653Z" fill="white"/>
</svg>
