<?xml version="1.0" encoding="UTF-8"?>
<svg id="Ebene_1" xmlns="http://www.w3.org/2000/svg" version="1.1" viewBox="0 0 32 22.3">
  <!-- Generator: Adobe Illustrator 29.7.1, SVG Export Plug-In . SVG Version: 2.1.1 Build 8)  -->
  <defs>
    <style>
      .st0 {
        fill-rule: evenodd;
      }
    </style>
  </defs>
  <path class="st0" d="M30.6,2.2c-.9-1.6-1.8-1.9-3.7-2-1.9-.1-6.7-.2-10.9-.2h0C11.8,0,7,0,5.1.2c-1.9.1-2.9.4-3.7,2C.5,3.7,0,6.4,0,11.2h0c0,4.7.5,7.5,1.4,9,.9,1.6,1.8,1.9,3.7,2,1.9.1,6.7.2,10.9.2h0c4.2,0,9,0,10.9-.2,1.9-.1,2.9-.4,3.7-2,.9-1.6,1.4-4.3,1.4-9h0c0-4.7-.5-7.5-1.4-9ZM12.8,17V5.3l9.1,5.9-9.1,5.9Z"/>
  <metadata>
    <sfw xmlns="http://ns.adobe.com/SaveForWeb/1.0/">
      <slices/>
      <sliceSourceBounds x="1104" y="284" width="32" height="22.32" bottomLeftOrigin="true"/>
    </sfw>
  </metadata>
</svg>